<?xml version="1.0" standalone="no"?><svg xmlns="http://www.w3.org/2000/svg" viewBox="0 0 1440 320"><path fill="#ffffff" fill-opacity="1" d="M0,128L16,133.3C32,139,64,149,96,128C128,107,160,53,192,53.3C224,53,256,107,288,117.3C320,128,352,96,384,90.7C416,85,448,107,480,101.3C512,96,544,64,576,64C608,64,640,96,672,96C704,96,736,64,768,53.3C800,43,832,53,864,96C896,139,928,213,960,234.7C992,256,1024,224,1056,181.3C1088,139,1120,85,1152,90.7C1184,96,1216,160,1248,165.3C1280,171,1312,117,1344,101.3C1376,85,1408,107,1424,117.3L1440,128L1440,0L1424,0C1408,0,1376,0,1344,0C1312,0,1280,0,1248,0C1216,0,1184,0,1152,0C1120,0,1088,0,1056,0C1024,0,992,0,960,0C928,0,896,0,864,0C832,0,800,0,768,0C736,0,704,0,672,0C640,0,608,0,576,0C544,0,512,0,480,0C448,0,416,0,384,0C352,0,320,0,288,0C256,0,224,0,192,0C160,0,128,0,96,0C64,0,32,0,16,0L0,0Z"></path></svg>